{"title":"Orange-County{DvDRip.Xvid}vice","uid":5330509,"size":626796989,"categoryP":"video","categoryS":"movies","magnet":"?xt=urn:btih:532255faa3798b4ebc5d286cf62549fc1bf85a2b&amp;dn=Orange-County%7BDvDRip.Xvid%7Dvice&amp;tr=udp%3A%2F%2Ftracker.openbittorrent.com%3A80&amp;tr=udp%3A%2F%2Fopen.demonii.com%3A1337&amp;tr=udp%3A%2F%2Ftracker.coppersurfer.tk%3A6969&amp;tr=udp%3A%2F%2Fexodus.desync.com%3A6969","seeders":1,"leechers":0,"uploader":"vicerock","files":-1,"time":1265154612,"description":"ORANGE COUNTY DVDRip Xvid\n\nFormat : AVI\nFormat/Info : Audio Video Interleave\nFile size : 597 MiB\nDuration : 1h 18mn\nOverall bit rate : 1 060 Kbps\nWriting application : MEncoder SVN-r29352(20090610-gcc4.3.3)\nWriting library : MPlayer\n\nVideo\nID : 0\nFormat : MPEG-4 Visual\nFormat profile : AdvancedSimple@L5\nFormat settings, BVOP : Yes\nFormat settings, QPel : No\nFormat settings, GMC : No warppoints\nFormat settings, Matrix : Default (H.263)\nCodec ID : XVID\nCodec ID/Hint : XviD\nDuration : 1h 18mn\nBit rate : 919 Kbps\nWidth : 640 pixels\nHeight : 480 pixels\nDisplay aspect ratio : 4:3\nFrame rate : 24.000 fps\nResolution : 24 bits\nColorimetry : 4:2:0\nScan type : Progressive\nBits/(Pixel*Frame) : 0.125\nStream size : 518 MiB (87%)\nWriting library : XviD 1.2.1 (UTC 2008-12-04)\n\nAudio\nID : 1\nFormat : MPEG Audio\nFormat version : Version 1\nFormat profile : Layer 3\nCodec ID : 55\nCodec ID/Hint : MP3\nDuration : 1h 18mn\nBit rate mode : Constant\nBit rate : 128 Kbps\nChannel(s) : 2 channels\nSampling rate : 44.1 KHz\nResolution : 16 bits\nVideo delay : 42ms\nStream size : 72.1 MiB (12%)\nAlignment : Aligned on interleaves\nInterleave, duration : 26 ms (0.63 video frame)\nInterleave, preload duration : 522 ms\n\nShaun Brumder (Colin Hanks) is a local surfer kid from Orange County, California who, after the death of his best friend Lonny (Brett Harrison), becomes disillusioned with his life and looks for another path. He stumbles upon a book titled &quot;Straight Jacket&quot;, and decides to become an author. He dreams of going to Stanford University to study with the book's author, Marcus Skinner, and to get away from his dysfunctional household. When his application is rejected after his dim-witted guidance counselor (Lily Tomlin) sends in the wrong transcript, Shaun goes to great lengths to get into Stanford by any means possible, with a little help from his girlfriend Ashley (Schuyler Fisk) and his drugged-out older brother Lance (Jack Black).\n &lt;a href=&quot;\nhttp://www.imdb.com/title/tt0273923/&quot; rel=&quot;nofollow&quot; target=&quot;_NEW&quot;&gt;\nhttp://www.imdb.com/title/tt0273923/&lt;/a&gt;\n\nPLEASE SEED AND ENJOY THANKS\n\nscreens\n &lt;a href=&quot;\nhttp://img215.imageshack.us/img215/6702/vlcsnap2010020222h00m24.png&quot; rel=&quot;nofollow&quot; target=&quot;_NEW&quot;&gt;\nhttp://img215.imageshack.us/img215/6702/vlcsnap2010020222h00m24.png&lt;/a&gt; &lt;a href=&quot;\nhttp://img693.imageshack.us/img693/9968/vlcsnap2010020222h00m36.png&quot; rel=&quot;nofollow&quot; target=&quot;_NEW&quot;&gt;\nhttp://img693.imageshack.us/img693/9968/vlcsnap2010020222h00m36.png&lt;/a&gt; &lt;a href=&quot;\nhttp://img51.imageshack.us/img51/3286/vlcsnap2010020222h00m48.png&quot; rel=&quot;nofollow&quot; target=&quot;_NEW&quot;&gt;\nhttp://img51.imageshack.us/img51/3286/vlcsnap2010020222h00m48.png&lt;/a&gt; &lt;a href=&quot;\nhttp://img688.imageshack.us/img688/6841/vlcsnap2010020222h01m44.png&quot; rel=&quot;nofollow&quot; target=&quot;_NEW&quot;&gt;\nhttp://img688.imageshack.us/img688/6841/vlcsnap2010020222h01m44.png&lt;/a&gt;","torrent":{"xt":"urn:btih:532255faa3798b4ebc5d286cf62549fc1bf85a2b","amp;dn":"Orange-County%7BDvDRip.Xvid%7Dvice","amp;tr":["udp%3A%2F%2Ftracker.openbittorrent.com%3A80","udp%3A%2F%2Fopen.demonii.com%3A1337","udp%3A%2F%2Ftracker.coppersurfer.tk%3A6969","udp%3A%2F%2Fexodus.desync.com%3A6969"],"infoHash":"532255faa3798b4ebc5d286cf62549fc1bf85a2b","infoHashBuffer":{"type":"Buffer","data":[83,34,85,250,163,121,139,78,188,93,40,108,246,37,73,252,27,248,90,43]},"announce":[],"urlList":[]}}